<svg width="960" height="993" viewBox="0 0 960 993" fill="none" xmlns="http://www.w3.org/2000/svg">
<mask id="mask0_89_309" style="mask-type:alpha" maskUnits="userSpaceOnUse" x="155" y="-107" width="827" height="948">
<path fill-rule="evenodd" clip-rule="evenodd" d="M530.966 840.75C530.749 840.75 530.538 840.75 530.32 840.748C515.131 840.674 500.417 837.518 485.337 831.099C477.928 827.945 470.493 824.053 462.608 819.2C455.013 814.527 447.212 809.091 438.76 802.582C423.626 790.929 406.488 775.864 384.825 755.171C364.979 736.214 343.102 714.259 317.77 688.837L317.763 688.83L310.115 681.157L309.939 680.98L309.921 680.963C285.484 656.448 264.38 635.277 245.989 616.018C225.889 594.968 211.091 578.321 199.42 563.629C192.897 555.419 187.368 547.851 182.515 540.495C177.474 532.852 173.312 525.663 169.791 518.517C162.612 503.945 158.319 489.834 156.667 475.382C155.828 468.045 155.3 460.797 155.097 453.84C154.891 446.752 155.014 439.719 155.463 432.937C155.914 426.1 156.717 419.291 157.868 412.537C159.027 405.783 160.545 399.095 162.416 392.503C170.017 365.744 183.645 339.829 204.08 313.275C224.483 286.764 252.013 259.171 288.245 228.92C306.07 214.038 325.722 198.715 348.325 182.075C370.192 165.977 394.127 149.158 421.499 130.657C470.017 97.8623 519.249 67.1485 567.825 39.3678C618.578 10.3431 667.848 -15.0303 714.269 -36.0463C763.437 -58.3073 809.184 -75.5642 850.236 -87.3404C871.71 -93.5002 892.147 -98.2191 910.98 -101.366C930.454 -104.62 948.674 -106.271 965.132 -106.271C970.666 -106.271 976.098 -106.083 981.278 -105.715V569.822L979.06 570.447L977.412 570.911C933.076 583.399 877.898 598.942 810 638.757C773.274 660.293 740.621 683.535 710.174 709.81C683.891 732.492 663.631 753.609 645.756 772.24L645.752 772.244C636.061 782.345 626.909 791.885 618.139 800.226C608.41 809.48 600.112 816.353 592.021 821.855C582.737 828.171 573.595 832.734 564.073 835.805C553.759 839.132 542.929 840.749 530.966 840.75Z" fill="#DCE8F2"/>
</mask>
<g mask="url(#mask0_89_309)">
<path fill-rule="evenodd" clip-rule="evenodd" d="M460.749 1133.81L337.785 1203.35V498.365L460.749 441.647V1133.81V1133.81Z" fill="#1F1F1F"/>
<path fill-rule="evenodd" clip-rule="evenodd" d="M304.356 478.941L300.024 476.424L274.194 461.416L237.066 439.842L214.664 441.647V1131.81L216.668 1132.97L337.785 1203.35V498.365L304.356 478.941Z" fill="#2FA2DB"/>
<path fill-rule="evenodd" clip-rule="evenodd" d="M304.356 478.941L300.024 476.424L274.194 461.416L237.066 439.842L214.664 441.647V1131.81L216.668 1132.97L337.785 1203.35V498.365L304.356 478.941Z" fill="#2B2B2B"/>
<path fill-rule="evenodd" clip-rule="evenodd" d="M460.749 450.541L337.785 520.073V503.877L460.749 434.344V450.541Z" fill="#015688"/>
<path fill-rule="evenodd" clip-rule="evenodd" d="M214.664 450.451L337.785 520.073V503.877L214.664 434.254V450.451Z" fill="#015688"/>
<path fill-rule="evenodd" clip-rule="evenodd" d="M214.664 434.255L337.785 503.877L460.748 434.344L337.547 363.222L214.664 434.255Z" fill="#013656"/>
<path fill-rule="evenodd" clip-rule="evenodd" d="M613.737 1309.67L490.774 1379.2V674.22L613.737 617.502V1309.67V1309.67Z" fill="#1F1F1F"/>
<path fill-rule="evenodd" clip-rule="evenodd" d="M457.344 654.797L453.012 652.28L427.183 637.271L390.054 615.698L367.653 617.503V1307.66L369.656 1308.83L490.773 1379.2V674.221L457.344 654.797Z" fill="#2FA2DB"/>
<path fill-rule="evenodd" clip-rule="evenodd" d="M457.344 654.797L453.012 652.28L427.183 637.271L390.054 615.698L367.653 617.503V1307.66L369.656 1308.83L490.773 1379.2V674.221L457.344 654.797Z" fill="#2B2B2B"/>
<path fill-rule="evenodd" clip-rule="evenodd" d="M613.737 626.397L490.774 695.93V679.733L613.737 610.2V626.397Z" fill="#015688"/>
<path fill-rule="evenodd" clip-rule="evenodd" d="M367.653 626.306L490.773 695.928V679.733L367.653 610.11V626.307V626.306Z" fill="#015688"/>
<path fill-rule="evenodd" clip-rule="evenodd" d="M367.653 610.111L490.774 679.733L613.737 610.2L490.535 539.078L367.652 610.111H367.653Z" fill="#013656"/>
<path fill-rule="evenodd" clip-rule="evenodd" d="M830.029 1275.29L707.066 1344.83V639.843L830.029 583.125V1275.29V1275.29Z" fill="#1F1F1F"/>
<path fill-rule="evenodd" clip-rule="evenodd" d="M673.637 620.419L669.306 617.902L643.475 602.893L606.348 581.32L583.946 583.126V1273.28L585.95 1274.45L707.066 1344.82V639.843L673.637 620.419Z" fill="#2FA2DB"/>
<path fill-rule="evenodd" clip-rule="evenodd" d="M673.637 620.419L669.306 617.902L643.475 602.893L606.348 581.32L583.946 583.126V1273.28L585.95 1274.45L707.066 1344.82V639.843L673.637 620.419Z" fill="#2B2B2B"/>
<path fill-rule="evenodd" clip-rule="evenodd" d="M830.029 592.018L707.066 661.551V645.355L830.029 575.822V592.018Z" fill="#015688"/>
<path fill-rule="evenodd" clip-rule="evenodd" d="M583.946 591.93L707.066 661.551V645.355L583.946 575.733V591.929V591.93Z" fill="#015688"/>
<path fill-rule="evenodd" clip-rule="evenodd" d="M583.946 575.733L707.066 645.355L830.029 575.822L706.828 504.7L583.946 575.733Z" fill="#013656"/>
<path fill-rule="evenodd" clip-rule="evenodd" d="M777.272 480.547C775.278 488.12 770.557 492.087 770.557 492.087C767.72 494.471 764.696 495.474 762.883 495.934L783.027 313.215C781.894 307.431 779.726 292.139 788.781 281.479C789.663 280.442 790.626 279.478 791.66 278.594C785.542 389.725 779.719 471.245 777.272 480.547Z" fill="#001C28"/>
<path fill-rule="evenodd" clip-rule="evenodd" d="M763.842 493.049C758.977 481.989 750.532 466.157 736.024 450.736C718.909 432.541 695.554 417.255 650.652 404.575C579.461 384.469 510.094 386.724 466.48 391.111L478.95 188.197C515.666 184.97 552.607 185.292 589.262 189.158C625.452 192.98 777.37 209.03 790.701 272.824C792.421 281.057 792.535 293.441 783.986 310.33L763.842 493.049Z" fill="#013656"/>
<path fill-rule="evenodd" clip-rule="evenodd" d="M625.712 286.287C609.02 284.24 588.534 282.583 570.077 281.479C542.93 279.856 515.72 279.535 488.542 280.517L489.501 268.978C516.357 267.81 543.257 268.13 570.077 269.939C589.42 271.243 609.597 273.252 626.672 275.708C626.033 279.235 626.352 282.76 625.712 286.287Z" fill="url(#paint0_linear_89_309)"/>
<path fill-rule="evenodd" clip-rule="evenodd" d="M627.631 263.207C610.939 261.16 591.412 259.502 572.954 258.399C545.807 256.776 518.598 256.455 491.42 257.437L492.38 245.898C519.235 244.73 546.135 245.05 572.955 246.858C592.298 248.163 611.516 250.172 628.591 252.628C627.952 256.155 628.271 259.68 627.631 263.207Z" fill="url(#paint1_linear_89_309)"/>
<path fill-rule="evenodd" clip-rule="evenodd" d="M629.549 241.09C612.857 239.042 594.289 236.423 575.833 235.32C548.685 233.696 521.476 233.375 494.298 234.356L495.257 222.816C540.451 220.852 585.73 223.106 630.508 229.548C629.869 233.074 630.19 237.562 629.549 241.088V241.09Z" fill="url(#paint2_linear_89_309)"/>
<path fill-rule="evenodd" clip-rule="evenodd" d="M746.577 435.348C734.758 426.238 722.25 418.063 709.167 410.896C692.072 401.537 674.074 393.942 655.449 388.227L663.123 298.79C681.208 299.224 706.83 302.41 734.107 315.138C742.101 318.87 749.798 323.213 757.128 328.129L746.577 435.348Z" fill="url(#paint3_linear_89_309)"/>
<path fill-rule="evenodd" clip-rule="evenodd" d="M427.386 594.481L437.219 599.312L460.484 563.594L445.975 556.463L427.386 594.481Z" fill="#FFC8AF"/>
<path fill-rule="evenodd" clip-rule="evenodd" d="M426.453 590.031L445.813 599.546L445.814 599.547C452.629 602.895 455.446 611.148 452.104 617.98L451.908 618.382L420.208 602.804L426.452 590.031H426.453Z" fill="url(#paint4_linear_89_309)"/>
<path fill-rule="evenodd" clip-rule="evenodd" d="M524.816 611.323H535.766L540.974 568.983H524.814L524.816 611.323Z" fill="#FFC8AF"/>
<path fill-rule="evenodd" clip-rule="evenodd" d="M522.023 604.158L543.585 604.157H543.586C551.176 604.157 557.328 610.324 557.328 617.933V618.381H522.023V604.157V604.158Z" fill="url(#paint5_linear_89_309)"/>
<path fill-rule="evenodd" clip-rule="evenodd" d="M501.298 275.136C517.108 275.136 522.685 295.17 523.232 297.127C525.575 305.5 525.104 317.744 519.238 320.908C517.919 321.62 516.622 321.713 514.442 321.87C512.817 321.986 507.812 322.171 501.297 319.118C492.44 314.968 479.363 308.961 479.363 297.127C479.363 284.981 489.183 275.136 501.298 275.136Z" fill="#FFC8AF"/>
<path fill-rule="evenodd" clip-rule="evenodd" d="M523.139 597.358C522.105 597.356 521.111 596.955 520.364 596.237C519.617 595.52 519.175 594.541 519.13 593.505L510.651 480.365C510.641 480.069 510.533 479.785 510.345 479.556C510.157 479.328 509.899 479.168 509.611 479.102C509.322 479.036 509.021 479.067 508.752 479.191C508.483 479.314 508.263 479.523 508.125 479.785L453.887 583.596C453.395 584.527 452.56 585.229 451.56 585.553C450.56 585.877 449.473 585.797 448.53 585.331L433.409 577.751C432.461 577.273 431.739 576.439 431.4 575.43C431.062 574.422 431.135 573.32 431.603 572.364L463.968 506.616L485.403 457.366C493.679 441.027 502.464 432.607 512.265 431.624C522.319 430.619 533.056 437.55 545.096 452.815L545.194 452.94L545.192 453.098L543.406 591.306C543.409 592.309 543.037 593.277 542.362 594.019C541.688 594.76 540.761 595.221 539.764 595.311L523.534 597.339C523.402 597.353 523.272 597.359 523.141 597.359L523.139 597.358Z" fill="url(#paint6_linear_89_309)"/>
<path fill-rule="evenodd" clip-rule="evenodd" d="M476.073 468.045C477.907 465.441 479.21 462.5 479.909 459.39C480.724 455.76 480.535 452.678 480.262 450.725L483.57 363.109L467.494 365.117L466.138 450.356C465.373 453.247 464.443 458.247 465.521 464.199C466.268 468.327 468.498 475.772 471.276 475.738C471.685 475.734 473.847 475.547 476.073 468.045Z" fill="#FFC8AF"/>
<path fill-rule="evenodd" clip-rule="evenodd" d="M488.316 378.599L466.728 376.14C466.114 376.07 465.522 375.868 464.992 375.548C464.463 375.228 464.009 374.797 463.66 374.286C463.312 373.774 463.077 373.192 462.973 372.582C462.869 371.971 462.897 371.344 463.056 370.746L468.63 349.76C469.413 343.192 475.358 338.502 481.91 339.287C488.435 340.069 493.106 345.988 492.363 352.535L493.101 374.167C493.122 374.787 493.009 375.403 492.771 375.975C492.533 376.547 492.175 377.061 491.72 377.482C491.266 377.902 490.727 378.22 490.14 378.413C489.552 378.605 488.93 378.669 488.316 378.599Z" fill="url(#paint7_linear_89_309)"/>
<path fill-rule="evenodd" clip-rule="evenodd" d="M581.309 323.445C581.2 323.928 581.128 324.418 581.096 324.913L542.731 347.102L533.406 341.721L523.465 354.768L539.049 365.904C540.308 366.804 541.825 367.27 543.37 367.232C544.916 367.194 546.408 366.655 547.622 365.695L587.181 334.405C588.818 334.309 594.895 333.752 599.229 328.855C603.685 323.818 604.545 316.171 602.691 315.138C600.067 313.676 592.657 325.832 587.344 323.793C584.679 322.771 583.831 318.674 582.548 318.985C581.614 319.211 581.371 321.54 581.309 323.445Z" fill="#FFC8AF"/>
<path fill-rule="evenodd" clip-rule="evenodd" d="M541.447 348.153L529.048 364.263C528.695 364.722 528.248 365.098 527.737 365.368C527.226 365.637 526.663 365.793 526.086 365.825C525.51 365.857 524.933 365.763 524.396 365.552C523.858 365.34 523.373 365.015 522.972 364.598L508.935 349.984C504.074 346.184 503.208 339.153 506.998 334.28C510.777 329.423 517.761 328.541 522.623 332.306L540.229 342.175C540.732 342.458 541.17 342.847 541.51 343.314C541.851 343.782 542.087 344.317 542.203 344.884C542.318 345.452 542.311 346.037 542.18 346.601C542.05 347.165 541.8 347.695 541.447 348.153Z" fill="url(#paint8_linear_89_309)"/>
<path fill-rule="evenodd" clip-rule="evenodd" d="M551.564 459.668L527.758 343.423C525.407 331.941 514.419 324.379 502.886 326.306L494.947 327.632C489.377 328.562 484.405 331.674 481.123 336.28C478.541 339.904 476.802 344.062 476.033 348.448C475.264 352.834 475.486 357.338 476.681 361.627L489.821 408.772L480.069 459.282C479.96 459.843 479.987 460.421 480.146 460.969C480.306 461.516 480.594 462.018 480.986 462.432C481.378 462.845 481.864 463.159 482.401 463.346C482.939 463.534 483.514 463.589 484.077 463.509C491.434 462.459 498.83 461.71 506.247 461.264L511.255 441.902L513.291 460.957C524.644 460.638 536.969 461.195 547.135 463.844C547.723 464.002 548.342 464.007 548.932 463.857C549.523 463.708 550.066 463.411 550.509 462.992C550.953 462.574 551.282 462.049 551.467 461.467C551.651 460.885 551.684 460.266 551.563 459.668H551.564Z" fill="url(#paint9_linear_89_309)"/>
<path fill-rule="evenodd" clip-rule="evenodd" d="M509.738 292.235C515.376 296.103 522.779 300.079 528.536 295.961C532.317 293.255 533.508 288.245 531.975 283.85C529.218 275.946 521.642 272.466 514.398 269.797C504.982 266.33 494.729 263.573 485.006 266.055C475.285 268.538 466.693 277.975 468.449 287.878C469.86 295.841 477.353 302.467 476.289 310.485C475.219 318.554 466.166 322.802 458.176 324.243C450.185 325.686 441.243 326.15 435.5 331.904C428.173 339.244 430.003 352.366 436.896 360.116C443.791 367.867 454.193 371.38 464.273 373.768C477.629 376.933 492.074 378.596 504.759 373.343C517.444 368.092 527.314 353.955 523.639 340.7C522.087 335.099 518.43 330.368 514.898 325.76C511.363 321.154 507.786 316.336 506.438 310.684C505.315 305.973 506.146 300.504 509.262 296.971C509.829 296.352 510.185 295.57 510.28 294.736C510.375 293.902 510.205 293.059 509.792 292.328L509.738 292.235Z" fill="url(#paint10_linear_89_309)"/>
<path fill-rule="evenodd" clip-rule="evenodd" d="M692.249 442.825C692.26 435.21 694.958 427.912 699.749 422.534C704.54 417.157 711.033 414.139 717.801 414.145C724.569 414.152 731.057 417.181 735.841 422.567C740.624 427.954 743.311 435.257 743.311 442.871C743.311 450.485 740.624 457.788 735.841 463.175C731.057 468.561 724.569 471.59 717.801 471.597C711.033 471.603 704.54 468.585 699.749 463.208C694.958 457.83 692.26 450.532 692.249 442.917V442.825Z" fill="url(#paint11_linear_89_309)"/>
<path fill-rule="evenodd" clip-rule="evenodd" d="M690.557 627.32L689.798 614.3L739.532 605.167L740.654 624.385L690.557 627.321V627.32Z" fill="#FFC8AF"/>
<path fill-rule="evenodd" clip-rule="evenodd" d="M692.966 604.781L694.431 629.894L678.659 630.818L676.273 589.894C684.983 589.383 692.457 596.049 692.966 604.781Z" fill="url(#paint12_linear_89_309)"/>
<path fill-rule="evenodd" clip-rule="evenodd" d="M712.189 627.201L703.927 637.277L661.229 610.127L673.421 595.256L712.189 627.201Z" fill="#FFC8AF"/>
<path fill-rule="evenodd" clip-rule="evenodd" d="M695.154 642.108L711.087 622.675L723.292 632.732L697.328 664.399C690.587 658.845 689.615 648.865 695.154 642.107V642.108Z" fill="url(#paint13_linear_89_309)"/>
<path fill-rule="evenodd" clip-rule="evenodd" d="M688.415 580.342L682.77 607.024C682.64 607.638 682.647 608.274 682.791 608.885C682.935 609.496 683.212 610.068 683.602 610.559C683.993 611.05 684.487 611.449 685.049 611.726C685.611 612.003 686.227 612.152 686.854 612.162L742.352 613.059C742.978 613.07 743.598 612.941 744.168 612.683C744.738 612.424 745.245 612.043 745.651 611.566C746.056 611.088 746.352 610.527 746.516 609.922C746.681 609.317 746.709 608.682 746.6 608.065L741.746 580.486C741.573 579.5 741.059 578.608 740.295 577.965C739.531 577.322 738.565 576.969 737.567 576.969H692.567C691.594 576.969 690.651 577.304 689.895 577.918C689.14 578.532 688.617 579.388 688.415 580.342Z" fill="#2F2E41"/>
<path fill-rule="evenodd" clip-rule="evenodd" d="M697.619 589.737C697.619 589.737 643.497 555.691 632.885 573.778C627.58 582.821 630.233 591.598 634.211 598.115C637.905 604.048 643.206 608.805 649.496 611.829L693.374 633.356L709.292 616.334L698.68 606.759L697.619 589.737Z" fill="url(#paint14_linear_89_309)"/>
<path fill-rule="evenodd" clip-rule="evenodd" d="M729.392 486.005H707.106C707.867 483.598 708.226 481.081 708.168 478.557C708.117 476.39 707.76 474.241 707.106 472.174H729.392C728.632 474.581 728.273 477.098 728.33 479.622C728.381 481.789 728.739 483.938 729.392 486.005Z" fill="#FFB6A0"/>
<path fill-rule="evenodd" clip-rule="evenodd" d="M725.211 584.416C725.211 584.416 795.25 564.202 781.454 602.502C767.659 640.803 715.66 625.909 715.66 625.909L710.353 609.951L728.395 597.183L725.21 584.416H725.211Z" fill="url(#paint15_linear_89_309)"/>
<path fill-rule="evenodd" clip-rule="evenodd" d="M694.877 449.384C694.888 442.458 697.343 435.82 701.701 430.929C706.06 426.038 711.967 423.294 718.123 423.3C724.279 423.306 730.181 426.062 734.533 430.961C738.884 435.861 741.328 442.504 741.328 449.43C741.328 456.357 738.884 463 734.533 467.899C730.181 472.799 724.279 475.555 718.123 475.561C711.967 475.567 706.06 472.823 701.701 467.932C697.343 463.041 694.888 456.403 694.877 449.477V449.384Z" fill="#FFC8AF"/>
<path fill-rule="evenodd" clip-rule="evenodd" d="M719.507 588.639C708.676 588.475 697.901 587.052 687.397 584.398L687.086 584.313L672.542 517.239C669.834 505.041 676.637 492.736 688.389 488.573C705.931 482.263 725.049 481.881 742.828 487.484H742.829C755.201 491.48 762.426 504.344 759.421 517.022L743.175 584.257L742.946 584.366C736.194 587.571 727.753 588.639 719.506 588.639H719.507Z" fill="url(#paint16_linear_89_309)"/>
<path fill-rule="evenodd" clip-rule="evenodd" d="M699.969 593.85C701.965 588.29 708.077 585.405 713.623 587.405C714.214 587.619 714.786 587.884 715.331 588.198L743.968 563.277L746.56 582.862L718.967 603.525C715.679 608.468 709.018 609.802 704.088 606.507C702.084 605.167 700.588 603.19 699.84 600.894C699.093 598.598 699.139 596.116 699.969 593.85H699.969Z" fill="#FFB8B8"/>
<path fill-rule="evenodd" clip-rule="evenodd" d="M727.282 599.285C726.817 599.284 726.353 599.216 725.907 599.082C725.182 598.871 724.519 598.489 723.972 597.967C723.425 597.446 723.01 596.801 722.763 596.086L719.306 586.267C718.983 585.36 718.942 584.376 719.189 583.444C719.436 582.513 719.959 581.679 720.689 581.052L759.707 557.567L744.327 488.774L744.717 488.679C744.876 488.64 760.636 485.044 767.094 502.308C771.616 514.4 788.351 540.692 787.171 558.458C786.946 562.012 785.534 565.386 783.161 568.036C780.789 570.686 777.595 572.457 774.095 573.063L730.173 598.292C729.345 598.935 728.328 599.284 727.281 599.285H727.282Z" fill="url(#paint17_linear_89_309)"/>
<path fill-rule="evenodd" clip-rule="evenodd" d="M731.659 591.516C729.664 585.956 723.55 583.07 718.005 585.072C717.413 585.285 716.842 585.55 716.298 585.864L687.659 560.943L685.068 580.527L712.66 601.19C714.119 603.378 716.327 604.954 718.866 605.619C721.406 606.285 724.101 605.995 726.441 604.803C728.781 603.611 730.604 601.6 731.566 599.152C732.527 596.703 732.56 593.986 731.658 591.515L731.659 591.516Z" fill="#FFB8B8"/>
<path fill-rule="evenodd" clip-rule="evenodd" d="M707.219 599.285C706.173 599.283 705.157 598.934 704.33 598.291L657.224 575.191C653.724 574.584 650.53 572.813 648.158 570.163C645.785 567.513 644.373 564.139 644.148 560.585C642.968 542.819 662.887 514.401 667.409 502.308C673.866 485.044 689.625 488.639 689.786 488.679L690.176 488.774L671.612 559.695L713.815 581.052C714.544 581.679 715.067 582.513 715.314 583.445C715.561 584.376 715.52 585.36 715.196 586.267L711.74 596.086C711.492 596.801 711.078 597.446 710.531 597.967C709.984 598.488 709.321 598.871 708.596 599.082C708.149 599.216 707.686 599.285 707.219 599.285Z" fill="url(#paint18_linear_89_309)"/>
<path fill-rule="evenodd" clip-rule="evenodd" d="M763.414 609.95H668.967C666.997 609.948 665.109 609.162 663.716 607.766C662.324 606.37 661.54 604.477 661.538 602.502V550.371C661.54 548.397 662.324 546.503 663.716 545.107C665.109 543.711 666.997 542.926 668.967 542.923H763.414C765.383 542.926 767.271 543.712 768.664 545.108C770.056 546.505 770.839 548.398 770.841 550.372V602.503C770.839 604.477 770.056 606.37 768.663 607.766C767.271 609.162 765.383 609.947 763.414 609.95Z" fill="url(#paint19_linear_89_309)"/>
<path fill-rule="evenodd" clip-rule="evenodd" d="M709.823 576.345C709.836 574.656 710.515 573.041 711.712 571.853C712.91 570.666 714.528 570.002 716.213 570.008C717.897 570.014 719.511 570.69 720.7 571.886C721.889 573.082 722.556 574.702 722.556 576.391C722.556 578.08 721.889 579.7 720.7 580.896C719.511 582.093 717.897 582.768 716.213 582.774C714.528 582.78 712.91 582.117 711.712 580.929C710.515 579.741 709.836 578.126 709.823 576.438V576.345Z" fill="white"/>
<path fill-rule="evenodd" clip-rule="evenodd" d="M694.644 448.413C693.268 444.485 695.526 439.803 698.877 437.901C702.226 435.998 706.269 436.359 709.853 437.613C712.865 438.668 715.687 440.301 718.625 441.591C721.522 443.035 724.686 443.669 727.848 443.44C730.982 443.041 734.101 441.064 735.384 437.821C736.713 434.461 735.808 430.361 733.762 427.493C731.583 424.72 728.764 422.682 725.618 421.603C718.709 418.864 710.727 418.784 704.312 422.766C697.896 426.748 693.536 435.225 694.863 443.332" fill="url(#paint20_linear_89_309)"/>
<path fill-rule="evenodd" clip-rule="evenodd" d="M373.702 396.133L362.56 329.865L363.455 329.486L362.11 328.713L362.112 328.72C361.851 328.547 361.481 328.557 361.075 328.793L272.033 380.332C271.301 380.755 270.748 381.841 270.877 382.599L282.106 449.395C282.166 449.743 282.337 449.974 282.576 450.075H282.575L283.891 450.839L284.118 449.606L284.043 449.628L372.546 398.401C373.277 397.978 373.83 396.892 373.701 396.134L373.702 396.133Z" fill="url(#paint21_linear_89_309)"/>
<path fill-rule="evenodd" clip-rule="evenodd" d="M272.529 382.145L271.065 381.495C270.902 381.872 270.82 382.267 270.877 382.601L282.106 449.396C282.166 449.743 282.338 449.975 282.577 450.076H282.574L283.892 450.839L284.118 449.607L284.044 449.628L288.522 447.036L272.529 382.145Z" fill="url(#paint22_linear_89_309)"/>
<path fill-rule="evenodd" clip-rule="evenodd" d="M373.942 399.205L284.899 450.744C284.211 451.142 283.624 450.912 283.502 450.199L272.273 383.403C272.144 382.645 272.698 381.558 273.429 381.136L362.47 329.596C363.158 329.198 363.746 329.428 363.867 330.142L375.098 396.937C375.226 397.696 374.672 398.781 373.941 399.204L373.942 399.205Z" fill="#0A79BA"/>
<path fill-rule="evenodd" clip-rule="evenodd" d="M362.772 330.839L273.31 382.597L284.609 449.562L374.011 397.838L362.771 330.839H362.772Z" fill="#2FA2DB"/>
<path fill-rule="evenodd" clip-rule="evenodd" d="M429.914 430.829L425.054 433.373L376.328 405.169C375.513 404.696 374.089 404.757 373.149 405.3L289.111 453.945C288.305 453.493 284.639 451.726 284.639 451.726L286.418 454.625L286.425 454.618C286.498 454.825 286.657 455.018 286.923 455.172L338.24 484.876C339.055 485.348 340.479 485.288 341.421 484.743L427.418 434.965C427.805 434.742 428.041 434.471 428.14 434.197L428.146 434.201L429.914 430.829Z" fill="url(#paint23_linear_89_309)"/>
<path fill-rule="evenodd" clip-rule="evenodd" d="M429.164 431.629L341.026 482.645C340.063 483.203 338.603 483.264 337.767 482.78L285.174 452.337C284.338 451.853 284.442 451.009 285.407 450.45L373.543 399.434C374.509 398.877 375.967 398.815 376.803 399.299L429.397 429.742C430.233 430.226 430.128 431.07 429.164 431.629Z" fill="url(#paint24_linear_89_309)"/>
<path fill-rule="evenodd" clip-rule="evenodd" d="M388.622 425.979L391.419 424.36C391.644 424.23 391.615 424.003 391.356 423.853L388.054 421.941C387.794 421.792 387.402 421.775 387.177 421.904L384.379 423.525C384.154 423.655 384.183 423.881 384.442 424.031L387.744 425.943C388.004 426.094 388.397 426.11 388.622 425.98V425.979Z" fill="#095B85"/>
<path fill-rule="evenodd" clip-rule="evenodd" d="M384.299 428.481L387.098 426.862C387.322 426.732 387.294 426.504 387.036 426.354L383.733 424.442C383.474 424.292 383.081 424.275 382.856 424.406L380.058 426.026C379.833 426.156 379.861 426.382 380.122 426.533L383.424 428.445C383.683 428.594 384.075 428.611 384.3 428.481H384.299Z" fill="#095B85"/>
<path fill-rule="evenodd" clip-rule="evenodd" d="M379.979 430.981L382.777 429.362C383.002 429.232 382.973 429.005 382.714 428.855L379.412 426.944C379.152 426.793 378.76 426.776 378.535 426.906L375.737 428.526C375.512 428.656 375.541 428.884 375.8 429.034L379.102 430.946C379.361 431.096 379.754 431.112 379.979 430.981Z" fill="#095B85"/>
<path fill-rule="evenodd" clip-rule="evenodd" d="M374.004 428.917L376.802 427.298C377.027 427.167 376.998 426.94 376.738 426.789L373.967 425.186C373.707 425.034 373.314 425.019 373.09 425.149L370.291 426.768C370.067 426.898 370.097 427.125 370.355 427.275L373.126 428.88C373.386 429.03 373.779 429.047 374.004 428.917Z" fill="#095B85"/>
<path fill-rule="evenodd" clip-rule="evenodd" d="M369.682 431.417L372.481 429.798C372.704 429.668 372.677 429.441 372.418 429.291L369.645 427.686C369.386 427.535 368.994 427.519 368.769 427.649L365.971 429.268C365.747 429.399 365.774 429.626 366.034 429.776L368.807 431.382C369.066 431.531 369.458 431.548 369.682 431.417Z" fill="#095B85"/>
<path fill-rule="evenodd" clip-rule="evenodd" d="M365.362 433.918L368.161 432.299C368.384 432.169 368.356 431.942 368.096 431.791L365.325 430.187C365.066 430.037 364.673 430.02 364.447 430.15L361.65 431.77C361.425 431.9 361.454 432.127 361.713 432.277L364.485 433.882C364.745 434.032 365.138 434.048 365.362 433.919V433.918Z" fill="#095B85"/>
<path fill-rule="evenodd" clip-rule="evenodd" d="M361.041 436.419L363.839 434.8C364.063 434.67 364.035 434.442 363.776 434.293L361.004 432.688C360.745 432.538 360.352 432.521 360.127 432.651L357.329 434.271C357.105 434.401 357.133 434.628 357.392 434.779L360.165 436.383C360.424 436.533 360.816 436.55 361.041 436.42V436.419Z" fill="#095B85"/>
<path fill-rule="evenodd" clip-rule="evenodd" d="M356.721 438.921L359.519 437.301C359.743 437.171 359.715 436.943 359.454 436.794L356.684 435.188C356.424 435.039 356.032 435.022 355.806 435.152L353.008 436.772C352.784 436.903 352.813 437.129 353.071 437.28L355.844 438.884C356.103 439.035 356.496 439.052 356.721 438.921Z" fill="#095B85"/>
<path fill-rule="evenodd" clip-rule="evenodd" d="M352.399 441.422L355.198 439.802C355.421 439.672 355.393 439.445 355.135 439.294L352.363 437.69C352.103 437.54 351.711 437.523 351.485 437.653L348.688 439.273C348.463 439.403 348.491 439.63 348.751 439.781L351.523 441.385C351.783 441.535 352.175 441.552 352.399 441.422Z" fill="#095B85"/>
<path fill-rule="evenodd" clip-rule="evenodd" d="M348.079 443.923L350.877 442.303C351.101 442.173 351.073 441.946 350.812 441.795L348.041 440.191C347.782 440.04 347.39 440.024 347.164 440.154L344.367 441.775C344.142 441.905 344.171 442.131 344.429 442.281L347.202 443.886C347.461 444.036 347.854 444.053 348.079 443.923Z" fill="#095B85"/>
<path fill-rule="evenodd" clip-rule="evenodd" d="M343.757 446.423L346.556 444.803C346.779 444.673 346.751 444.447 346.493 444.297L343.72 442.692C343.461 442.542 343.069 442.525 342.843 442.654L340.046 444.275C339.821 444.405 339.849 444.632 340.109 444.782L342.881 446.387C343.141 446.537 343.533 446.554 343.757 446.424V446.423Z" fill="#095B85"/>
<path fill-rule="evenodd" clip-rule="evenodd" d="M339.437 448.925L342.236 447.304C342.459 447.174 342.431 446.948 342.171 446.797L339.4 445.193C339.141 445.043 338.749 445.026 338.523 445.156L335.726 446.776C335.5 446.906 335.529 447.133 335.788 447.284L338.561 448.888C338.82 449.038 339.213 449.055 339.437 448.925Z" fill="#095B85"/>
<path fill-rule="evenodd" clip-rule="evenodd" d="M335.116 451.426L337.914 449.807C338.138 449.676 338.11 449.449 337.851 449.298L335.079 447.695C334.819 447.543 334.427 447.528 334.202 447.658L331.404 449.277C331.18 449.407 331.208 449.634 331.467 449.784L334.24 451.389C334.499 451.539 334.891 451.556 335.116 451.426Z" fill="#095B85"/>
<path fill-rule="evenodd" clip-rule="evenodd" d="M367.637 427.732L370.436 426.112C370.66 425.982 370.63 425.755 370.372 425.606L367.6 424C367.34 423.851 366.947 423.834 366.723 423.964L363.924 425.583C363.7 425.713 363.73 425.941 363.988 426.092L366.76 427.696C367.02 427.847 367.413 427.863 367.637 427.731V427.732Z" fill="#095B85"/>
<path fill-rule="evenodd" clip-rule="evenodd" d="M372.021 425.194L374.82 423.575C375.045 423.445 375.016 423.218 374.758 423.067L371.985 421.463C371.725 421.312 371.332 421.296 371.108 421.426L368.309 423.046C368.086 423.176 368.114 423.403 368.373 423.552L371.145 425.158C371.405 425.307 371.797 425.324 372.021 425.194Z" fill="#095B85"/>
<path fill-rule="evenodd" clip-rule="evenodd" d="M376.415 422.651L382.441 419.163C382.666 419.033 382.638 418.807 382.378 418.656L379.606 417.052C379.346 416.901 378.954 416.884 378.729 417.014L372.703 420.503C372.478 420.633 372.506 420.861 372.767 421.01L375.538 422.615C375.798 422.764 376.19 422.781 376.415 422.652V422.651Z" fill="#095B85"/>
<path fill-rule="evenodd" clip-rule="evenodd" d="M373.345 419.559L378.235 416.729C378.459 416.599 378.432 416.371 378.171 416.222L375.399 414.616C375.14 414.467 374.748 414.449 374.524 414.581L369.632 417.411C369.408 417.541 369.437 417.768 369.695 417.918L372.468 419.523C372.728 419.673 373.121 419.69 373.345 419.56V419.559Z" fill="#095B85"/>
<path fill-rule="evenodd" clip-rule="evenodd" d="M363.316 430.233L366.114 428.614C366.339 428.484 366.311 428.257 366.051 428.107L363.279 426.502C363.019 426.352 362.627 426.335 362.403 426.465L359.604 428.084C359.38 428.215 359.408 428.442 359.667 428.593L362.44 430.196C362.699 430.347 363.091 430.363 363.316 430.233Z" fill="#095B85"/>
<path fill-rule="evenodd" clip-rule="evenodd" d="M358.995 432.735L361.794 431.115C362.018 430.985 361.988 430.757 361.73 430.607L358.958 429.003C358.698 428.852 358.305 428.836 358.081 428.966L355.282 430.587C355.058 430.717 355.088 430.943 355.346 431.093L358.118 432.698C358.378 432.848 358.771 432.865 358.995 432.735Z" fill="#095B85"/>
<path fill-rule="evenodd" clip-rule="evenodd" d="M354.674 435.235L357.473 433.615C357.697 433.485 357.669 433.259 357.41 433.109L354.637 431.504C354.378 431.354 353.986 431.337 353.761 431.466L350.963 433.087C350.738 433.217 350.766 433.444 351.027 433.594L353.798 435.2C354.058 435.349 354.45 435.366 354.674 435.235Z" fill="#095B85"/>
<path fill-rule="evenodd" clip-rule="evenodd" d="M350.353 437.736L353.152 436.117C353.376 435.986 353.347 435.76 353.088 435.61L350.316 434.005C350.057 433.855 349.664 433.838 349.44 433.968L346.641 435.588C346.417 435.718 346.446 435.946 346.705 436.096L349.477 437.7C349.736 437.85 350.129 437.867 350.353 437.737V437.736Z" fill="#095B85"/>
<path fill-rule="evenodd" clip-rule="evenodd" d="M346.032 440.238L348.831 438.619C349.055 438.488 349.027 438.261 348.768 438.11L345.995 436.507C345.736 436.355 345.344 436.339 345.119 436.47L342.321 438.089C342.096 438.219 342.124 438.446 342.384 438.596L345.156 440.201C345.416 440.351 345.808 440.368 346.032 440.238Z" fill="#095B85"/>
<path fill-rule="evenodd" clip-rule="evenodd" d="M341.712 442.737L344.511 441.119C344.735 440.989 344.705 440.762 344.447 440.611L341.675 439.007C341.416 438.856 341.023 438.84 340.798 438.97L338 440.589C337.775 440.72 337.805 440.948 338.064 441.097L340.835 442.703C341.095 442.852 341.488 442.869 341.712 442.738V442.737Z" fill="#095B85"/>
<path fill-rule="evenodd" clip-rule="evenodd" d="M337.391 445.239L340.189 443.62C340.414 443.49 340.385 443.263 340.126 443.114L337.354 441.508C337.094 441.358 336.702 441.342 336.478 441.471L333.679 443.091C333.455 443.221 333.483 443.449 333.743 443.599L336.514 445.203C336.774 445.353 337.167 445.369 337.391 445.24V445.239Z" fill="#095B85"/>
<path fill-rule="evenodd" clip-rule="evenodd" d="M333.07 447.74L335.869 446.121C336.093 445.991 336.065 445.763 335.805 445.614L333.033 444.009C332.773 443.859 332.381 443.843 332.156 443.972L329.358 445.592C329.133 445.722 329.163 445.949 329.422 446.099L332.192 447.704C332.453 447.854 332.846 447.87 333.07 447.741V447.74Z" fill="#095B85"/>
<path fill-rule="evenodd" clip-rule="evenodd" d="M328.749 450.241L331.548 448.621C331.772 448.491 331.744 448.264 331.485 448.115L328.712 446.509C328.452 446.36 328.06 446.343 327.836 446.473L325.037 448.092C324.813 448.223 324.841 448.45 325.101 448.601L327.873 450.205C328.133 450.356 328.525 450.372 328.749 450.241Z" fill="#095B85"/>
<path fill-rule="evenodd" clip-rule="evenodd" d="M321.067 454.688L327.172 451.154C327.397 451.024 327.37 450.797 327.109 450.647L324.337 449.042C324.078 448.891 323.685 448.875 323.461 449.005L317.356 452.539C317.131 452.669 317.159 452.896 317.419 453.046L320.191 454.651C320.451 454.801 320.843 454.818 321.067 454.688Z" fill="#095B85"/>
<path fill-rule="evenodd" clip-rule="evenodd" d="M312.655 449.819L317.808 446.836C318.033 446.706 318.004 446.479 317.746 446.329L314.973 444.724C314.713 444.574 314.321 444.557 314.096 444.687L308.944 447.67C308.718 447.8 308.746 448.027 309.007 448.177L311.779 449.782C312.038 449.932 312.431 449.949 312.655 449.82V449.819Z" fill="#095B85"/>
<path fill-rule="evenodd" clip-rule="evenodd" d="M355.749 429.744L358.547 428.124C358.772 427.994 358.744 427.768 358.484 427.617L355.712 426.013C355.452 425.862 355.06 425.845 354.835 425.975L352.038 427.595C351.812 427.725 351.841 427.953 352.1 428.103L354.872 429.707C355.132 429.858 355.524 429.874 355.749 429.744Z" fill="#095B85"/>
<path fill-rule="evenodd" clip-rule="evenodd" d="M360.178 427.181L362.976 425.561C363.201 425.431 363.172 425.203 362.913 425.054L360.141 423.449C359.881 423.3 359.488 423.283 359.264 423.412L356.465 425.032C356.241 425.163 356.269 425.389 356.529 425.539L359.301 427.144C359.561 427.294 359.953 427.311 360.178 427.181V427.181Z" fill="#095B85"/>
<path fill-rule="evenodd" clip-rule="evenodd" d="M364.607 424.618L367.404 422.998C367.629 422.868 367.601 422.641 367.34 422.491L364.569 420.886C364.309 420.735 363.917 420.719 363.692 420.849L360.895 422.47C360.669 422.6 360.698 422.827 360.957 422.976L363.729 424.582C363.988 424.731 364.381 424.748 364.606 424.618H364.607Z" fill="#095B85"/>
<path fill-rule="evenodd" clip-rule="evenodd" d="M369.035 422.054L371.833 420.434C372.058 420.304 372.029 420.078 371.77 419.928L368.998 418.323C368.738 418.173 368.345 418.156 368.121 418.285L365.322 419.906C365.098 420.036 365.126 420.263 365.386 420.414L368.158 422.018C368.418 422.167 368.81 422.185 369.035 422.055V422.054Z" fill="#095B85"/>
<path fill-rule="evenodd" clip-rule="evenodd" d="M351.429 432.245L354.226 430.626C354.452 430.495 354.423 430.268 354.163 430.118L351.391 428.514C351.132 428.363 350.739 428.346 350.515 428.477L347.716 430.097C347.492 430.227 347.52 430.454 347.78 430.603L350.552 432.209C350.811 432.358 351.203 432.375 351.428 432.246L351.429 432.245Z" fill="#095B85"/>
<path fill-rule="evenodd" clip-rule="evenodd" d="M347.107 434.747L349.906 433.127C350.13 432.997 350.102 432.769 349.842 432.619L347.07 431.014C346.81 430.864 346.418 430.848 346.193 430.979L343.396 432.598C343.17 432.728 343.199 432.955 343.458 433.104L346.23 434.71C346.49 434.86 346.883 434.876 347.107 434.747Z" fill="#095B85"/>
<path fill-rule="evenodd" clip-rule="evenodd" d="M342.786 437.246L345.584 435.627C345.809 435.497 345.781 435.27 345.521 435.121L342.749 433.515C342.49 433.366 342.097 433.349 341.873 433.479L339.074 435.098C338.85 435.228 338.878 435.456 339.138 435.606L341.91 437.21C342.169 437.362 342.561 437.377 342.786 437.247V437.246Z" fill="#095B85"/>
<path fill-rule="evenodd" clip-rule="evenodd" d="M338.466 439.748L341.264 438.129C341.489 437.999 341.461 437.771 341.2 437.621L338.428 436.017C338.169 435.867 337.777 435.85 337.552 435.98L334.755 437.599C334.529 437.729 334.558 437.956 334.817 438.107L337.589 439.711C337.848 439.862 338.241 439.878 338.466 439.748Z" fill="#095B85"/>
<path fill-rule="evenodd" clip-rule="evenodd" d="M334.145 442.249L336.943 440.63C337.168 440.5 337.139 440.272 336.88 440.122L334.108 438.517C333.849 438.367 333.456 438.35 333.231 438.482L330.433 440.101C330.208 440.231 330.236 440.458 330.497 440.608L333.268 442.213C333.528 442.363 333.92 442.38 334.144 442.249H334.145Z" fill="#095B85"/>
<path fill-rule="evenodd" clip-rule="evenodd" d="M329.824 444.75L332.623 443.13C332.847 443 332.819 442.773 332.559 442.624L329.787 441.018C329.527 440.869 329.135 440.852 328.91 440.981L326.113 442.601C325.887 442.732 325.916 442.959 326.175 443.109L328.947 444.713C329.207 444.864 329.6 444.88 329.824 444.75V444.75Z" fill="#095B85"/>
<path fill-rule="evenodd" clip-rule="evenodd" d="M325.504 447.252L328.302 445.631C328.527 445.501 328.498 445.274 328.239 445.124L325.467 443.519C325.207 443.37 324.814 443.353 324.59 443.483L321.791 445.103C321.567 445.233 321.595 445.459 321.855 445.61L324.627 447.214C324.887 447.365 325.279 447.382 325.504 447.252Z" fill="#095B85"/>
<path fill-rule="evenodd" clip-rule="evenodd" d="M321.182 449.752L323.981 448.133C324.205 448.002 324.177 447.776 323.917 447.625L321.145 446.021C320.886 445.87 320.494 445.853 320.268 445.984L317.471 447.604C317.245 447.734 317.274 447.96 317.534 448.111L320.305 449.715C320.565 449.866 320.958 449.883 321.182 449.753V449.752Z" fill="#095B85"/>
<path fill-rule="evenodd" clip-rule="evenodd" d="M316.862 452.253L319.66 450.634C319.885 450.504 319.856 450.277 319.597 450.126L316.825 448.522C316.566 448.371 316.173 448.355 315.948 448.485L313.15 450.105C312.925 450.235 312.953 450.463 313.214 450.612L315.985 452.217C316.245 452.367 316.637 452.383 316.862 452.253Z" fill="#095B85"/>
<path fill-rule="evenodd" clip-rule="evenodd" d="M358.025 423.558L360.823 421.939C361.047 421.809 361.019 421.581 360.76 421.431L357.987 419.826C357.728 419.676 357.335 419.66 357.11 419.791L354.312 421.41C354.088 421.54 354.117 421.767 354.377 421.916L357.147 423.522C357.408 423.671 357.8 423.688 358.025 423.559V423.558Z" fill="#095B85"/>
<path fill-rule="evenodd" clip-rule="evenodd" d="M362.324 421.069L365.123 419.45C365.346 419.32 365.318 419.092 365.058 418.942L362.287 417.338C362.027 417.188 361.635 417.172 361.409 417.302L358.612 418.921C358.387 419.051 358.416 419.278 358.674 419.428L361.447 421.033C361.707 421.183 362.1 421.2 362.324 421.07V421.069Z" fill="#095B85"/>
<path fill-rule="evenodd" clip-rule="evenodd" d="M366.623 418.581L369.422 416.962C369.646 416.832 369.618 416.605 369.358 416.454L366.586 414.849C366.326 414.699 365.934 414.683 365.709 414.813L362.911 416.432C362.686 416.562 362.715 416.79 362.974 416.94L365.746 418.544C366.006 418.694 366.399 418.711 366.623 418.581Z" fill="#095B85"/>
<path fill-rule="evenodd" clip-rule="evenodd" d="M370.922 416.091L373.721 414.473C373.945 414.342 373.917 414.116 373.657 413.965L370.885 412.361C370.626 412.21 370.234 412.193 370.009 412.324L367.212 413.944C366.986 414.074 367.014 414.302 367.274 414.451L370.046 416.057C370.305 416.206 370.698 416.223 370.922 416.092V416.091Z" fill="#095B85"/>
<path fill-rule="evenodd" clip-rule="evenodd" d="M366.502 413.533L369.299 411.913C369.524 411.783 369.496 411.556 369.236 411.406L368.32 410.876C368.06 410.725 367.668 410.709 367.443 410.839L364.645 412.459C364.421 412.589 364.45 412.816 364.708 412.966L365.625 413.497C365.885 413.647 366.277 413.664 366.502 413.533Z" fill="#095B85"/>
<path fill-rule="evenodd" clip-rule="evenodd" d="M360.89 416.781L363.689 415.161C363.913 415.031 363.886 414.804 363.625 414.654L362.71 414.123C362.45 413.974 362.057 413.957 361.833 414.086L359.034 415.706C358.81 415.836 358.838 416.064 359.098 416.214L360.014 416.745C360.273 416.895 360.666 416.911 360.89 416.781Z" fill="#095B85"/>
<path fill-rule="evenodd" clip-rule="evenodd" d="M356.609 419.259L359.407 417.639C359.632 417.509 359.603 417.282 359.344 417.133L358.427 416.601C358.167 416.452 357.776 416.435 357.551 416.565L354.752 418.184C354.529 418.314 354.557 418.542 354.817 418.692L355.733 419.223C355.992 419.374 356.384 419.39 356.61 419.258L356.609 419.259Z" fill="#095B85"/>
<path fill-rule="evenodd" clip-rule="evenodd" d="M352.328 421.737L355.127 420.118C355.351 419.987 355.323 419.761 355.063 419.61L354.147 419.08C353.888 418.929 353.496 418.913 353.27 419.043L350.473 420.663C350.247 420.793 350.276 421.021 350.536 421.17L351.453 421.702C351.712 421.851 352.104 421.868 352.328 421.737Z" fill="#095B85"/>
<path fill-rule="evenodd" clip-rule="evenodd" d="M348.046 424.215L350.845 422.596C351.069 422.465 351.04 422.239 350.782 422.089L349.865 421.558C349.606 421.408 349.213 421.391 348.988 421.521L346.19 423.141C345.966 423.271 345.994 423.499 346.255 423.649L347.17 424.179C347.43 424.329 347.822 424.346 348.047 424.216L348.046 424.215Z" fill="#095B85"/>
<path fill-rule="evenodd" clip-rule="evenodd" d="M324.144 438.051L326.942 436.431C327.166 436.301 327.138 436.075 326.88 435.923L325.962 435.394C325.703 435.243 325.311 435.226 325.086 435.356L322.289 436.977C322.063 437.107 322.092 437.334 322.351 437.484L323.268 438.014C323.527 438.164 323.919 438.181 324.144 438.051Z" fill="#095B85"/>
<path fill-rule="evenodd" clip-rule="evenodd" d="M319.863 440.529L322.661 438.909C322.886 438.779 322.857 438.553 322.597 438.402L321.682 437.872C321.421 437.722 321.029 437.705 320.804 437.835L318.006 439.455C317.782 439.585 317.81 439.811 318.069 439.963L318.986 440.492C319.245 440.642 319.638 440.659 319.863 440.53V440.529Z" fill="#095B85"/>
<path fill-rule="evenodd" clip-rule="evenodd" d="M315.581 443.007L318.379 441.388C318.604 441.258 318.575 441.031 318.316 440.88L317.398 440.35C317.14 440.2 316.748 440.183 316.523 440.313L313.725 441.933C313.5 442.063 313.528 442.289 313.788 442.44L314.705 442.97C314.964 443.121 315.356 443.138 315.581 443.008V443.007Z" fill="#095B85"/>
<path fill-rule="evenodd" clip-rule="evenodd" d="M311.3 445.485L314.098 443.866C314.322 443.736 314.294 443.508 314.034 443.358L313.118 442.828C312.858 442.679 312.466 442.662 312.241 442.791L309.443 444.411C309.219 444.541 309.248 444.768 309.507 444.918L310.423 445.449C310.683 445.599 311.075 445.615 311.3 445.485Z" fill="#095B85"/>
<path fill-rule="evenodd" clip-rule="evenodd" d="M353.704 426.058L356.502 424.439C356.726 424.309 356.698 424.082 356.44 423.932L353.667 422.327C353.408 422.177 353.015 422.161 352.79 422.291L349.992 423.91C349.768 424.04 349.796 424.268 350.057 424.418L352.827 426.022C353.087 426.173 353.479 426.189 353.704 426.059V426.058Z" fill="#095B85"/>
<path fill-rule="evenodd" clip-rule="evenodd" d="M349.383 428.559L352.181 426.941C352.405 426.811 352.377 426.584 352.118 426.433L349.345 424.829C349.086 424.678 348.694 424.662 348.469 424.792L345.67 426.411C345.447 426.541 345.475 426.768 345.735 426.919L348.506 428.523C348.766 428.673 349.158 428.69 349.383 428.56V428.559Z" fill="#095B85"/>
<path fill-rule="evenodd" clip-rule="evenodd" d="M345.062 431.061L347.86 429.442C348.084 429.311 348.056 429.084 347.798 428.934L345.024 427.329C344.765 427.179 344.373 427.162 344.148 427.293L341.35 428.913C341.126 429.043 341.154 429.27 341.414 429.42L344.185 431.025C344.445 431.175 344.837 431.191 345.061 431.061H345.062Z" fill="#095B85"/>
<path fill-rule="evenodd" clip-rule="evenodd" d="M340.742 433.562L343.539 431.942C343.764 431.812 343.736 431.585 343.476 431.436L340.704 429.83C340.444 429.681 340.051 429.664 339.827 429.793L337.028 431.413C336.805 431.544 336.834 431.771 337.093 431.921L339.864 433.525C340.124 433.676 340.516 433.693 340.742 433.562V433.562Z" fill="#095B85"/>
<path fill-rule="evenodd" clip-rule="evenodd" d="M336.419 436.063L339.218 434.443C339.442 434.313 339.414 434.086 339.156 433.936L336.383 432.331C336.124 432.182 335.731 432.165 335.506 432.294L332.708 433.915C332.484 434.045 332.512 434.271 332.773 434.422L335.544 436.026C335.803 436.177 336.195 436.194 336.419 436.064V436.063Z" fill="#095B85"/>
<path fill-rule="evenodd" clip-rule="evenodd" d="M332.099 438.565L334.898 436.945C335.122 436.814 335.094 436.588 334.834 436.437L332.063 434.832C331.803 434.682 331.41 434.665 331.185 434.796L328.386 436.416C328.162 436.546 328.192 436.772 328.45 436.923L331.222 438.527C331.482 438.678 331.875 438.695 332.099 438.565Z" fill="#095B85"/>
<path fill-rule="evenodd" clip-rule="evenodd" d="M327.779 441.065L330.576 439.445C330.801 439.315 330.773 439.089 330.513 438.938L327.742 437.334C327.482 437.183 327.089 437.166 326.865 437.297L324.066 438.917C323.843 439.047 323.871 439.275 324.131 439.424L326.902 441.029C327.161 441.179 327.553 441.196 327.778 441.065H327.779Z" fill="#095B85"/>
<path fill-rule="evenodd" clip-rule="evenodd" d="M323.457 443.566L326.256 441.947C326.48 441.816 326.452 441.59 326.193 441.438L323.42 439.835C323.16 439.685 322.768 439.668 322.543 439.798L319.744 441.418C319.521 441.548 319.55 441.775 319.808 441.925L322.58 443.53C322.84 443.679 323.233 443.696 323.457 443.567V443.566Z" fill="#095B85"/>
<path fill-rule="evenodd" clip-rule="evenodd" d="M319.136 446.067L321.935 444.448C322.159 444.318 322.131 444.09 321.872 443.94L319.101 442.335C318.841 442.185 318.448 442.169 318.223 442.3L315.425 443.919C315.2 444.049 315.228 444.276 315.489 444.425L318.26 446.031C318.52 446.18 318.912 446.197 319.136 446.068V446.067Z" fill="#095B85"/>
<path fill-rule="evenodd" clip-rule="evenodd" d="M378.406 426.367L386.647 421.599C386.872 421.469 386.844 421.241 386.584 421.09L383.812 419.487C383.553 419.335 383.16 419.32 382.935 419.45L374.695 424.219C374.471 424.35 374.498 424.576 374.758 424.727L377.531 426.331C377.79 426.482 378.182 426.499 378.406 426.368V426.367Z" fill="#095B85"/>
<path fill-rule="evenodd" clip-rule="evenodd" d="M325.325 457.093L333.564 452.325C333.789 452.194 333.761 451.966 333.501 451.816L330.729 450.211C330.469 450.061 330.078 450.045 329.852 450.176L321.612 454.945C321.388 455.075 321.416 455.302 321.675 455.453L324.448 457.056C324.708 457.208 325.099 457.224 325.325 457.094V457.093Z" fill="#095B85"/>
<path fill-rule="evenodd" clip-rule="evenodd" d="M342.604 452.615L345.401 450.996C345.626 450.866 345.598 450.639 345.339 450.49L342.036 448.577C341.777 448.427 341.384 448.41 341.159 448.54L338.361 450.161C338.136 450.291 338.166 450.518 338.425 450.668L341.728 452.58C341.987 452.73 342.378 452.746 342.604 452.615Z" fill="#095B85"/>
<path fill-rule="evenodd" clip-rule="evenodd" d="M373.981 434.453L378.456 431.863C378.681 431.733 378.653 431.506 378.394 431.357L375.091 429.445C374.832 429.294 374.439 429.277 374.215 429.408L369.74 431.998C369.515 432.128 369.543 432.356 369.803 432.506L373.105 434.416C373.365 434.568 373.757 434.584 373.981 434.453Z" fill="#095B85"/>
<path fill-rule="evenodd" clip-rule="evenodd" d="M346.767 450.207L351.242 447.615C351.467 447.486 351.437 447.259 351.178 447.109L347.875 445.197C347.617 445.047 347.225 445.03 346.999 445.16L342.525 447.751C342.3 447.881 342.329 448.108 342.588 448.258L345.89 450.17C346.15 450.32 346.543 450.337 346.767 450.207Z" fill="#095B85"/>
<path fill-rule="evenodd" clip-rule="evenodd" d="M367.749 438.062L372.223 435.472C372.447 435.342 372.419 435.115 372.161 434.964L368.858 433.053C368.598 432.903 368.205 432.886 367.981 433.016L363.506 435.606C363.282 435.736 363.31 435.964 363.569 436.114L366.872 438.026C367.131 438.175 367.523 438.192 367.748 438.063L367.749 438.062Z" fill="#095B85"/>
<path fill-rule="evenodd" clip-rule="evenodd" d="M367.95 433.034L348.496 444.294C348.255 444.434 348.255 444.661 348.496 444.801L351.863 446.75C352.104 446.889 352.495 446.889 352.737 446.75L372.193 435.489L367.95 433.034Z" fill="#095B85"/>
<path fill-rule="evenodd" clip-rule="evenodd" d="M330.528 457.151L327.411 458.954C327.227 459.06 327.25 459.247 327.463 459.371L328.813 460.152C329.026 460.276 329.348 460.289 329.532 460.182L332.649 458.377C332.832 458.271 332.809 458.086 332.598 457.962L331.246 457.181C331.034 457.057 330.712 457.044 330.528 457.151Z" fill="#095B85"/>
<path fill-rule="evenodd" clip-rule="evenodd" d="M334.884 454.63L331.767 456.432C331.584 456.539 331.606 456.726 331.819 456.849L333.17 457.63C333.383 457.754 333.704 457.767 333.888 457.66L337.005 455.856C337.189 455.75 337.166 455.564 336.953 455.441L335.603 454.659C335.39 454.536 335.068 454.523 334.884 454.63Z" fill="#095B85"/>
<path fill-rule="evenodd" clip-rule="evenodd" d="M339.205 452.128L336.089 453.932C335.905 454.038 335.928 454.224 336.14 454.347L337.492 455.129C337.703 455.252 338.026 455.266 338.21 455.159L341.327 453.355C341.511 453.249 341.488 453.062 341.275 452.94L339.924 452.157C339.711 452.035 339.39 452.021 339.205 452.128Z" fill="#095B85"/>
<path fill-rule="evenodd" clip-rule="evenodd" d="M332.499 453.247L329.382 455.051C329.198 455.158 329.221 455.345 329.433 455.467L330.784 456.25C330.997 456.372 331.319 456.386 331.503 456.279L334.62 454.475C334.803 454.368 334.781 454.182 334.568 454.06L333.217 453.277C333.004 453.154 332.683 453.141 332.499 453.247Z" fill="#095B85"/>
<path fill-rule="evenodd" clip-rule="evenodd" d="M300.025 416.253L296.526 418.279L296.662 419.09L300.161 417.065L300.025 416.253Z" fill="#F4EDED"/>
<path fill-rule="evenodd" clip-rule="evenodd" d="M303.012 414.525L301.262 415.538L301.398 416.349L303.147 415.337L303.012 414.525Z" fill="#F4EDED"/>
<path fill-rule="evenodd" clip-rule="evenodd" d="M300.741 413.754L299.249 414.618L299.385 415.429L300.876 414.565L300.741 413.754Z" fill="#F4EDED"/>
<path fill-rule="evenodd" clip-rule="evenodd" d="M303.238 412.31L301.488 413.322L301.624 414.132L303.373 413.12L303.238 412.309V412.31Z" fill="#F4EDED"/>
<path fill-rule="evenodd" clip-rule="evenodd" d="M305.806 408.736L298.93 412.716L299.066 413.527L305.943 409.546L305.806 408.736Z" fill="#F4EDED"/>
<path fill-rule="evenodd" clip-rule="evenodd" d="M299.847 392.817L292.971 396.797L293.106 397.608L299.982 393.628L299.846 392.817H299.847Z" fill="#F4EDED"/>
<path fill-rule="evenodd" clip-rule="evenodd" d="M302.491 391.287L300.741 392.3L300.877 393.11L302.626 392.097L302.491 391.287Z" fill="#F4EDED"/>
<path fill-rule="evenodd" clip-rule="evenodd" d="M300.104 409.951L298.613 410.815L298.749 411.626L300.24 410.762L300.104 409.951Z" fill="#F4EDED"/>
<path fill-rule="evenodd" clip-rule="evenodd" d="M302.601 408.506L300.852 409.518L300.987 410.33L302.737 409.317L302.601 408.506Z" fill="#F4EDED"/>
<path fill-rule="evenodd" clip-rule="evenodd" d="M302.075 406.726L298.294 408.913L298.431 409.724L302.211 407.536L302.075 406.725V406.726Z" fill="#F4EDED"/>
<path fill-rule="evenodd" clip-rule="evenodd" d="M304.605 405.26L302.856 406.273L302.991 407.084L304.741 406.071L304.605 405.26Z" fill="#F4EDED"/>
<path fill-rule="evenodd" clip-rule="evenodd" d="M307.149 403.788L305.399 404.801L305.535 405.612L307.285 404.599L307.148 403.788H307.149Z" fill="#F4EDED"/>
<path fill-rule="evenodd" clip-rule="evenodd" d="M311.254 401.411L307.943 403.329L308.078 404.139L311.389 402.223L311.254 401.412V401.411Z" fill="#F4EDED"/>
<path fill-rule="evenodd" clip-rule="evenodd" d="M308.633 398.758L306.884 399.771L307.019 400.582L308.769 399.569L308.633 398.758Z" fill="#F4EDED"/>
<path fill-rule="evenodd" clip-rule="evenodd" d="M312.738 396.381L309.427 398.298L309.563 399.109L312.873 397.192L312.738 396.381Z" fill="#F4EDED"/>
<path fill-rule="evenodd" clip-rule="evenodd" d="M299.409 404.096L297.659 405.109L297.794 405.921L299.544 404.908L299.409 404.097V404.096Z" fill="#F4EDED"/>
<path fill-rule="evenodd" clip-rule="evenodd" d="M301.952 402.625L300.202 403.637L300.338 404.448L302.087 403.436L301.952 402.625Z" fill="#F4EDED"/>
<path fill-rule="evenodd" clip-rule="evenodd" d="M306.056 400.249L302.746 402.166L302.881 402.976L306.193 401.06L306.057 400.249H306.056Z" fill="#F4EDED"/>
<path fill-rule="evenodd" clip-rule="evenodd" d="M311.436 399.221L309.686 400.234L309.821 401.045L311.571 400.032L311.436 399.221Z" fill="#F4EDED"/>
<path fill-rule="evenodd" clip-rule="evenodd" d="M313.98 397.749L312.229 398.762L312.365 399.573L314.115 398.56L313.979 397.749H313.98Z" fill="#F4EDED"/>
<path fill-rule="evenodd" clip-rule="evenodd" d="M318.084 395.372L314.773 397.29L314.908 398.1L318.219 396.184L318.084 395.373V395.372Z" fill="#F4EDED"/>
<path fill-rule="evenodd" clip-rule="evenodd" d="M305.229 389.702L303.479 390.715L303.614 391.526L305.364 390.513L305.229 389.702Z" fill="#F4EDED"/>
<path fill-rule="evenodd" clip-rule="evenodd" d="M309.333 387.326L306.021 389.243L306.158 390.053L309.469 388.137L309.333 387.326Z" fill="#F4EDED"/>
<path fill-rule="evenodd" clip-rule="evenodd" d="M298.771 400.294L297.023 401.306L297.158 402.117L298.908 401.105L298.772 400.294H298.771Z" fill="#F4EDED"/>
<path fill-rule="evenodd" clip-rule="evenodd" d="M302.878 397.918L299.566 399.835L299.702 400.646L303.013 398.729L302.878 397.918Z" fill="#F4EDED"/>
<path fill-rule="evenodd" clip-rule="evenodd" d="M307.135 386.513L305.384 387.526L305.52 388.337L307.27 387.324L307.135 386.513Z" fill="#F4EDED"/>
<path fill-rule="evenodd" clip-rule="evenodd" d="M311.239 384.138L307.928 386.053L308.063 386.864L311.374 384.948L311.239 384.138Z" fill="#F4EDED"/>
<path fill-rule="evenodd" clip-rule="evenodd" d="M311.038 405.708L309.289 406.721L309.424 407.532L311.174 406.519L311.038 405.708Z" fill="#F4EDED"/>
<path fill-rule="evenodd" clip-rule="evenodd" d="M308.392 407.239L306.642 408.252L306.778 409.063L308.527 408.05L308.392 407.239Z" fill="#F4EDED"/>
<path fill-rule="evenodd" clip-rule="evenodd" d="M315.142 403.333L311.831 405.248L311.968 406.059L315.278 404.144L315.142 403.333Z" fill="#F4EDED"/>
<path fill-rule="evenodd" clip-rule="evenodd" d="M299.556 406.098L297.977 407.011L298.112 407.822L299.691 406.909L299.556 406.098Z" fill="#F4EDED"/>
<path fill-rule="evenodd" clip-rule="evenodd" d="M304.237 403.387L300.4 405.608L300.535 406.42L304.372 404.199L304.237 403.387Z" fill="#F4EDED"/>
<path fill-rule="evenodd" clip-rule="evenodd" d="M308.919 400.677L305.082 402.899L305.217 403.71L309.054 401.489L308.919 400.678V400.677Z" fill="#F4EDED"/>
<path fill-rule="evenodd" clip-rule="evenodd" d="M317.575 401.925L315.995 402.838L316.132 403.649L317.71 402.736L317.575 401.925Z" fill="#F4EDED"/>
<path fill-rule="evenodd" clip-rule="evenodd" d="M322.255 399.215L318.418 401.435L318.554 402.247L322.39 400.027L322.255 399.215Z" fill="#F4EDED"/>
<path fill-rule="evenodd" clip-rule="evenodd" d="M326.937 396.506L323.1 398.726L323.235 399.537L327.072 397.317L326.937 396.506Z" fill="#F4EDED"/>
<path fill-rule="evenodd" clip-rule="evenodd" d="M301.212 400.967L297.375 403.188L297.51 404L301.347 401.779L301.212 400.967Z" fill="#F4EDED"/>
<path fill-rule="evenodd" clip-rule="evenodd" d="M303.235 399.796L302.056 400.478L302.192 401.289L303.37 400.608L303.235 399.796Z" fill="#F4EDED"/>
<path fill-rule="evenodd" clip-rule="evenodd" d="M305.262 398.624L304.083 399.305L304.219 400.116L305.397 399.434L305.262 398.623V398.624Z" fill="#F4EDED"/>
<path fill-rule="evenodd" clip-rule="evenodd" d="M309.01 396.454L306.111 398.132L306.246 398.943L309.146 397.265L309.01 396.454Z" fill="#F4EDED"/>
<path fill-rule="evenodd" clip-rule="evenodd" d="M313.21 400.28L312.031 400.962L312.168 401.773L313.347 401.09L313.21 400.28Z" fill="#F4EDED"/>
<path fill-rule="evenodd" clip-rule="evenodd" d="M316.958 398.11L314.059 399.788L314.195 400.599L317.094 398.921L316.958 398.11Z" fill="#F4EDED"/>
<path fill-rule="evenodd" clip-rule="evenodd" d="M317.745 397.654L314.847 399.332L314.982 400.143L317.882 398.465L317.745 397.654Z" fill="#F4EDED"/>
<path fill-rule="evenodd" clip-rule="evenodd" d="M302.311 387.219L298.53 389.407L298.666 390.218L302.447 388.03L302.311 387.219Z" fill="#F4EDED"/>
<path fill-rule="evenodd" clip-rule="evenodd" d="M304.842 385.755L303.091 386.768L303.228 387.578L304.977 386.565L304.841 385.755H304.842Z" fill="#F4EDED"/>
<path fill-rule="evenodd" clip-rule="evenodd" d="M307.385 384.282L305.635 385.295L305.77 386.106L307.52 385.094L307.385 384.282Z" fill="#F4EDED"/>
<path fill-rule="evenodd" clip-rule="evenodd" d="M311.489 381.907L308.178 383.823L308.314 384.634L311.624 382.718L311.489 381.907Z" fill="#F4EDED"/>
<path fill-rule="evenodd" clip-rule="evenodd" d="M314.116 380.386L312.365 381.4L312.501 382.211L314.251 381.198L314.116 380.387V380.386Z" fill="#F4EDED"/>
<path fill-rule="evenodd" clip-rule="evenodd" d="M318.22 378.011L314.909 379.927L315.044 380.738L318.356 378.822L318.22 378.011Z" fill="#F4EDED"/>
<path fill-rule="evenodd" clip-rule="evenodd" d="M305.627 381.128L303.878 382.141L304.014 382.952L305.764 381.939L305.627 381.128Z" fill="#F4EDED"/>
<path fill-rule="evenodd" clip-rule="evenodd" d="M309.733 378.752L306.422 380.668L306.557 381.479L309.868 379.563L309.733 378.752Z" fill="#F4EDED"/>
<path fill-rule="evenodd" clip-rule="evenodd" d="M296.489 386.417L294.74 387.43L294.875 388.241L296.625 387.229L296.489 386.417Z" fill="#F4EDED"/>
<path fill-rule="evenodd" clip-rule="evenodd" d="M299.032 384.946L297.283 385.959L297.418 386.77L299.169 385.757L299.032 384.946Z" fill="#F4EDED"/>
<path fill-rule="evenodd" clip-rule="evenodd" d="M303.136 382.569L299.826 384.486L299.961 385.297L303.273 383.38L303.136 382.57V382.569Z" fill="#F4EDED"/>
<path fill-rule="evenodd" clip-rule="evenodd" d="M299.791 386.592L298.213 387.506L298.348 388.317L299.927 387.403L299.791 386.592Z" fill="#F4EDED"/>
<path fill-rule="evenodd" clip-rule="evenodd" d="M304.473 383.882L300.636 386.103L300.771 386.915L304.608 384.694L304.473 383.882Z" fill="#F4EDED"/>
<path fill-rule="evenodd" clip-rule="evenodd" d="M309.154 381.173L305.317 383.393L305.452 384.205L309.289 381.984L309.154 381.173Z" fill="#F4EDED"/>
<path fill-rule="evenodd" clip-rule="evenodd" d="M295.197 385.08L291.361 387.3L291.496 388.112L295.333 385.892L295.197 385.08Z" fill="#F4EDED"/>
<path fill-rule="evenodd" clip-rule="evenodd" d="M297.221 383.909L296.042 384.591L296.177 385.402L297.356 384.72L297.221 383.909Z" fill="#F4EDED"/>
<path fill-rule="evenodd" clip-rule="evenodd" d="M299.247 382.737L298.068 383.418L298.205 384.229L299.382 383.547L299.247 382.736V382.737Z" fill="#F4EDED"/>
<path fill-rule="evenodd" clip-rule="evenodd" d="M302.995 380.566L300.096 382.244L300.231 383.055L303.131 381.377L302.995 380.566Z" fill="#F4EDED"/>
<path fill-rule="evenodd" clip-rule="evenodd" d="M303.783 380.111L300.884 381.789L301.019 382.6L303.919 380.921L303.783 380.111Z" fill="#F4EDED"/>
<path fill-rule="evenodd" clip-rule="evenodd" d="M296.926 392.422L295.747 393.104L295.882 393.915L297.061 393.233L296.926 392.422Z" fill="#F4EDED"/>
<path fill-rule="evenodd" clip-rule="evenodd" d="M300.673 390.253L297.774 391.931L297.91 392.742L300.809 391.064L300.673 390.253Z" fill="#F4EDED"/>
<path fill-rule="evenodd" clip-rule="evenodd" d="M304.503 388.037L301.603 389.715L301.738 390.526L304.638 388.847L304.503 388.037Z" fill="#F4EDED"/>
<path fill-rule="evenodd" clip-rule="evenodd" d="M319.258 375.324L317.507 376.337L317.644 377.148L319.393 376.135L319.258 375.324Z" fill="#F4EDED"/>
<path fill-rule="evenodd" clip-rule="evenodd" d="M323.362 372.949L320.051 374.865L320.187 375.676L323.498 373.76L323.362 372.949Z" fill="#F4EDED"/>
<path fill-rule="evenodd" clip-rule="evenodd" d="M312.797 379.064L309.898 380.743L310.033 381.553L312.932 379.875L312.797 379.064Z" fill="#F4EDED"/>
<path fill-rule="evenodd" clip-rule="evenodd" d="M316.626 376.848L313.726 378.526L313.863 379.337L316.761 377.659L316.626 376.848Z" fill="#F4EDED"/>
<path fill-rule="evenodd" clip-rule="evenodd" d="M294.876 400.464L293.697 401.145L293.833 401.957L295.011 401.275L294.876 400.464Z" fill="#F4EDED"/>
<path fill-rule="evenodd" clip-rule="evenodd" d="M298.623 398.294L295.725 399.972L295.86 400.783L298.76 399.105L298.623 398.294Z" fill="#F4EDED"/>
<path fill-rule="evenodd" clip-rule="evenodd" d="M302.452 396.078L299.553 397.756L299.689 398.567L302.588 396.888L302.452 396.078Z" fill="#F4EDED"/>
</g>
<g style="mix-blend-mode:lighten">
<path d="M530.329 839.748H530.325C515.279 839.675 500.696 836.55 485.729 830.179C478.371 827.047 470.981 823.179 463.132 818.348L462.608 819.2L463.132 818.348C455.572 813.697 447.799 808.281 439.37 801.79C424.276 790.167 407.165 775.128 385.515 754.448C365.691 735.512 343.837 713.58 318.52 688.173L318.482 688.135L318.478 688.131L318.475 688.128L318.471 688.124L310.823 680.451L310.115 681.157L310.823 680.451L310.647 680.275L310.644 680.272L310.629 680.257L310.627 680.254L310.583 680.211C286.164 655.713 265.083 634.565 246.713 615.327C226.623 594.289 211.848 577.666 200.203 563.007C193.695 554.816 188.183 547.272 183.35 539.944L182.515 540.495L183.35 539.944C178.328 532.331 174.188 525.178 170.688 518.075C163.554 503.594 159.298 489.594 157.661 475.268L156.667 475.382L157.661 475.268C156.825 467.957 156.299 460.738 156.097 453.811C155.891 446.753 156.014 439.753 156.461 433.003L155.463 432.937L156.461 433.003C156.91 426.201 157.708 419.426 158.854 412.706C160.006 405.987 161.516 399.334 163.378 392.776C170.938 366.162 184.499 340.358 204.873 313.885C225.217 287.45 252.689 259.909 288.886 229.687C306.692 214.821 326.328 199.51 348.918 182.88C370.772 166.792 394.696 149.981 422.059 131.486C470.558 98.7041 519.768 68.0036 568.321 40.2359C619.051 11.2246 668.293 -14.134 714.682 -35.1353C763.816 -57.3812 809.517 -74.6193 850.512 -86.3791C871.955 -92.5302 892.355 -97.2399 911.145 -100.38L910.98 -101.366L911.145 -100.38C930.575 -103.627 948.738 -105.271 965.132 -105.271C970.313 -105.271 975.404 -105.105 980.278 -104.781V569.064L978.789 569.484L977.141 569.949L977.139 569.95C932.787 582.442 877.507 598.012 809.495 637.895C772.719 659.46 740.017 682.737 709.521 709.053C683.207 731.761 662.923 752.902 645.053 771.528L645.043 771.539L645.039 771.543L645.034 771.548L645.03 771.552C635.336 781.657 626.2 791.179 617.45 799.502C607.747 808.731 599.491 815.566 591.459 821.029L592.021 821.855L591.459 821.029C582.244 827.297 573.187 831.815 563.766 834.853C553.561 838.145 542.836 839.749 530.966 839.75C530.749 839.75 530.541 839.75 530.329 839.748Z" stroke="#03A9F4" stroke-opacity="0.25" stroke-width="2"/>
</g>
<g style="mix-blend-mode:lighten">
<path d="M525.808 895.28H525.805C508.999 895.197 492.711 891.704 475.997 884.583C467.782 881.082 459.53 876.759 450.768 871.362C442.327 866.164 433.651 860.113 424.243 852.861C407.395 839.876 388.3 823.077 364.14 799.979C342.017 778.827 317.629 754.33 289.378 725.954L289.337 725.912L289.335 725.91L289.33 725.905L289.327 725.902L280.793 717.332L280.084 718.038L280.793 717.332L280.596 717.135L280.595 717.134L280.577 717.115L280.576 717.114L280.522 717.061C253.276 689.702 229.753 666.082 209.254 644.596C186.835 621.098 170.346 602.529 157.349 586.154C150.086 577.003 143.933 568.575 138.538 560.387L137.703 560.938L138.538 560.387C132.932 551.881 128.31 543.888 124.402 535.95C116.436 519.765 111.682 504.117 109.854 488.101L108.86 488.215L109.854 488.101C108.921 479.933 108.334 471.867 108.108 464.126C107.878 456.241 108.015 448.418 108.515 440.876L107.517 440.81L108.515 440.876C109.016 433.275 109.907 425.704 111.186 418.195C112.473 410.686 114.159 403.252 116.237 395.924C124.677 366.182 139.818 337.35 162.559 307.774C185.266 278.24 215.928 247.475 256.322 213.718C276.193 197.113 298.106 180.011 323.314 161.436C347.701 143.467 374.398 124.69 404.932 104.033C459.052 67.4191 513.965 33.1293 568.146 2.11508C624.755 -30.2881 679.705 -58.6119 731.471 -82.0692C786.302 -106.917 837.302 -126.171 883.053 -139.307C906.984 -146.178 929.751 -151.439 950.723 -154.947C972.409 -158.574 992.683 -160.411 1010.98 -160.411C1016.81 -160.411 1022.53 -160.224 1028 -159.857V592.935L1026.25 593.427L1024.41 593.946L1024.41 593.947C974.925 607.898 913.252 625.285 837.374 669.821C796.344 693.903 759.858 719.896 725.835 749.283C696.479 774.64 673.848 798.248 653.907 819.051L653.896 819.063L653.891 819.068L653.886 819.073L653.882 819.078C643.064 830.363 632.868 841 623.103 850.298C612.273 860.608 603.055 868.247 594.086 874.352L594.649 875.179L594.086 874.352C583.796 881.359 573.68 886.41 563.156 889.807C551.755 893.487 539.776 895.281 526.52 895.282C526.278 895.282 526.046 895.282 525.808 895.28Z" stroke="#03A9F4" stroke-opacity="0.25" stroke-width="2"/>
</g>
<g style="mix-blend-mode:lighten">
<path d="M521.78 921.346H521.777C503.35 921.258 485.492 917.522 467.17 909.909C458.165 906.168 449.121 901.547 439.519 895.779L439.004 896.637L439.519 895.779C430.27 890.224 420.763 883.759 410.454 876.011C391.995 862.137 371.074 844.189 344.608 819.513C320.374 796.919 293.658 770.751 262.714 740.44L262.665 740.392L262.661 740.388L262.657 740.384L262.653 740.38L253.304 731.225L252.604 731.94L253.304 731.225L253.089 731.014L253.087 731.013L253.067 730.993L253.065 730.992L253.012 730.94C223.163 701.712 197.393 676.478 174.936 653.523C150.377 628.421 132.311 608.583 118.072 591.088C110.115 581.311 103.374 572.306 97.4618 563.558C91.3197 554.469 86.2547 545.928 81.973 537.446C73.2438 520.151 68.0345 503.43 66.0311 486.316L65.0381 486.432L66.0311 486.316C65.009 477.589 64.3655 468.971 64.1184 460.701C63.8667 452.275 64.0169 443.918 64.564 435.86L63.5663 435.792L64.564 435.86C65.1129 427.738 66.0899 419.649 67.491 411.625C68.9008 403.603 70.7479 395.66 73.0247 387.83C82.273 356.052 98.8625 325.245 123.778 293.645C148.658 262.09 182.251 229.22 226.504 193.157C248.273 175.418 272.278 157.148 299.894 137.304C326.61 118.108 355.856 98.0487 389.305 75.9814C448.592 36.8672 508.748 0.235901 568.103 -32.8962C630.117 -67.5122 690.315 -97.7705 747.026 -122.83C807.094 -149.375 862.966 -169.946 913.09 -183.98C939.309 -191.321 964.253 -196.942 987.232 -200.69L987.071 -201.677L987.232 -200.69C1010.99 -204.566 1033.21 -206.528 1053.26 -206.528C1059.67 -206.528 1065.97 -206.326 1072 -205.931V598.345L1070.02 598.889L1068.01 599.443L1068.01 599.443C1013.8 614.346 946.251 632.917 863.142 680.485C818.201 706.208 778.238 733.971 740.972 765.36C708.816 792.446 684.028 817.663 662.183 839.886L662.172 839.898L662.167 839.902L662.162 839.908L662.161 839.908L662.156 839.913C650.307 851.968 639.136 863.333 628.437 873.266C616.571 884.282 606.47 892.446 596.639 898.972L597.192 899.805L596.639 898.972C585.36 906.461 574.27 911.861 562.73 915.494C550.229 919.429 537.093 921.347 522.561 921.348C522.296 921.348 522.042 921.348 521.78 921.346Z" stroke="#03A9F4" stroke-opacity="0.25" stroke-width="2"/>
</g>
<g style="mix-blend-mode:lighten">
<path d="M516.013 991.524H516.01C495.267 991.425 475.165 987.222 454.544 978.658C444.409 974.448 434.23 969.251 423.426 962.764L422.912 963.622L423.426 962.764C413.019 956.517 402.322 949.245 390.725 940.533C369.958 924.931 346.424 904.751 316.654 877.008C289.397 851.607 259.349 822.189 224.547 788.115L224.482 788.051L223.782 788.766L224.481 788.051L224.472 788.042L213.957 777.751L213.258 778.465L213.957 777.75L213.715 777.514L213.713 777.511L213.691 777.49L213.688 777.487L213.63 777.43C180.057 744.572 151.071 716.202 125.81 690.395C98.1863 662.172 77.8646 639.867 61.8453 620.194C52.8935 609.201 45.3093 599.074 38.6575 589.236C31.7467 579.015 26.047 569.408 21.2284 559.867C11.4045 540.412 5.54051 521.599 3.28528 502.343L2.29207 502.46L3.28527 502.343C2.13538 492.529 1.4113 482.837 1.13319 473.536C0.849996 464.06 1.01899 454.66 1.63463 445.597L0.636926 445.529L1.63465 445.597C2.25228 436.461 3.35174 427.363 4.9284 418.339C6.51477 409.315 8.59339 400.381 11.1555 391.575C21.5628 355.83 40.2305 321.183 68.2625 285.647C96.2532 250.163 134.044 213.204 183.822 172.657C208.31 152.712 235.312 132.171 266.374 109.861C296.424 88.2791 329.32 65.7271 366.943 40.9178C433.629 -3.05698 501.293 -44.2403 568.055 -81.4898C637.809 -120.408 705.519 -154.426 769.309 -182.601C836.875 -212.445 899.723 -235.573 956.107 -251.353C985.601 -259.607 1013.66 -265.927 1039.51 -270.141C1066.24 -274.5 1091.24 -276.707 1113.8 -276.707C1121.06 -276.707 1128.18 -276.477 1135 -276.027V628.369L1132.68 629.006L1130.42 629.629L1130.42 629.629C1069.45 646.383 993.486 667.257 900.024 720.726C849.482 749.641 804.54 780.849 762.631 816.132C726.467 846.58 698.589 874.927 674.019 899.911L674.011 899.919L674.006 899.924L673.999 899.931L673.997 899.933L673.992 899.938C660.665 913.491 648.098 926.269 636.062 937.439C622.713 949.826 611.346 959.008 600.281 966.35L600.834 967.183L600.281 966.35C587.586 974.775 575.102 980.852 562.11 984.939C548.036 989.368 533.249 991.525 516.893 991.527C516.594 991.527 516.308 991.527 516.013 991.524Z" stroke="#03A9F4" stroke-opacity="0.25" stroke-width="2"/>
</g>
<defs>
<linearGradient id="paint0_linear_89_309" x1="488.542" y1="277.289" x2="626.672" y2="277.289" gradientUnits="userSpaceOnUse">
<stop stop-color="#78ACC6"/>
<stop offset="1" stop-color="#4F7C96"/>
</linearGradient>
<linearGradient id="paint1_linear_89_309" x1="491.42" y1="254.208" x2="628.591" y2="254.208" gradientUnits="userSpaceOnUse">
<stop stop-color="#78ACC6"/>
<stop offset="1" stop-color="#4F7C96"/>
</linearGradient>
<linearGradient id="paint2_linear_89_309" x1="433.684" y1="231.61" x2="569.895" y2="231.61" gradientUnits="userSpaceOnUse">
<stop stop-color="#79A8BF"/>
<stop offset="1" stop-color="#5387A6"/>
</linearGradient>
<linearGradient id="paint3_linear_89_309" x1="644" y1="377.461" x2="732.564" y2="341.527" gradientUnits="userSpaceOnUse">
<stop stop-color="#FCDEBC"/>
<stop offset="1" stop-color="#E1866D"/>
</linearGradient>
<linearGradient id="paint4_linear_89_309" x1="420.208" y1="604.207" x2="453.511" y2="604.207" gradientUnits="userSpaceOnUse">
<stop stop-color="#0F0348"/>
<stop offset="1" stop-color="#0F0326"/>
</linearGradient>
<linearGradient id="paint5_linear_89_309" x1="522.023" y1="611.269" x2="557.328" y2="611.269" gradientUnits="userSpaceOnUse">
<stop stop-color="#0F0348"/>
<stop offset="1" stop-color="#0F0326"/>
</linearGradient>
<linearGradient id="paint6_linear_89_309" x1="431.19" y1="514.444" x2="545.194" y2="514.444" gradientUnits="userSpaceOnUse">
<stop stop-color="#352583"/>
<stop offset="1" stop-color="#26134B"/>
</linearGradient>
<linearGradient id="paint7_linear_89_309" x1="465.116" y1="358.914" x2="495.307" y2="358.914" gradientUnits="userSpaceOnUse">
<stop stop-color="#F9DB6D"/>
<stop offset="1" stop-color="#E8AB67"/>
</linearGradient>
<linearGradient id="paint8_linear_89_309" x1="509.08" y1="347.901" x2="546.726" y2="347.901" gradientUnits="userSpaceOnUse">
<stop stop-color="#EAD27C"/>
<stop offset="1" stop-color="#D7AA78"/>
</linearGradient>
<linearGradient id="paint9_linear_89_309" x1="473.835" y1="394.986" x2="549.885" y2="394.986" gradientUnits="userSpaceOnUse">
<stop stop-color="#EAD27C"/>
<stop offset="1" stop-color="#D7AB78"/>
</linearGradient>
<linearGradient id="paint10_linear_89_309" x1="408" y1="376.96" x2="532.732" y2="321.152" gradientUnits="userSpaceOnUse">
<stop stop-color="#361FA3"/>
<stop offset="1" stop-color="#261249"/>
</linearGradient>
<linearGradient id="paint11_linear_89_309" x1="692.249" y1="442.871" x2="743.311" y2="442.871" gradientUnits="userSpaceOnUse">
<stop stop-color="#2C1E6F"/>
<stop offset="1" stop-color="#13052E"/>
</linearGradient>
<linearGradient id="paint12_linear_89_309" x1="676.273" y1="610.342" x2="694.431" y2="610.342" gradientUnits="userSpaceOnUse">
<stop stop-color="#0F0348"/>
<stop offset="1" stop-color="#0F0326"/>
</linearGradient>
<linearGradient id="paint13_linear_89_309" x1="691.561" y1="643.537" x2="723.292" y2="643.537" gradientUnits="userSpaceOnUse">
<stop stop-color="#0F0348"/>
<stop offset="1" stop-color="#0F0326"/>
</linearGradient>
<linearGradient id="paint14_linear_89_309" x1="629.914" y1="600.919" x2="709.292" y2="600.919" gradientUnits="userSpaceOnUse">
<stop stop-color="#0F0348"/>
<stop offset="1" stop-color="#0F0326"/>
</linearGradient>
<linearGradient id="paint15_linear_89_309" x1="710.353" y1="603.923" x2="783.254" y2="603.923" gradientUnits="userSpaceOnUse">
<stop stop-color="#0F0348"/>
<stop offset="1" stop-color="#0F0326"/>
</linearGradient>
<linearGradient id="paint16_linear_89_309" x1="646.034" y1="536.092" x2="734.184" y2="536.092" gradientUnits="userSpaceOnUse">
<stop stop-color="#E6E6E6"/>
<stop offset="1" stop-color="#666666"/>
</linearGradient>
<linearGradient id="paint17_linear_89_309" x1="686.702" y1="543.814" x2="754.903" y2="543.814" gradientUnits="userSpaceOnUse">
<stop stop-color="#E6E6E6"/>
<stop offset="1" stop-color="#666666"/>
</linearGradient>
<linearGradient id="paint18_linear_89_309" x1="644.598" y1="543.813" x2="715.973" y2="543.813" gradientUnits="userSpaceOnUse">
<stop stop-color="#999999"/>
<stop offset="1" stop-color="#B3B3B3"/>
</linearGradient>
<linearGradient id="paint19_linear_89_309" x1="666.785" y1="576.437" x2="776.088" y2="576.437" gradientUnits="userSpaceOnUse">
<stop stop-color="#EAD27C"/>
<stop offset="1" stop-color="#D7AA78"/>
</linearGradient>
<linearGradient id="paint20_linear_89_309" x1="694.234" y1="434.03" x2="736.009" y2="434.03" gradientUnits="userSpaceOnUse">
<stop stop-color="#2C1E6F"/>
<stop offset="1" stop-color="#13052E"/>
</linearGradient>
<linearGradient id="paint21_linear_89_309" x1="286.802" y1="389.72" x2="389.663" y2="389.72" gradientUnits="userSpaceOnUse">
<stop stop-color="#2FA2DB"/>
<stop offset="1" stop-color="#0A79BA"/>
</linearGradient>
<linearGradient id="paint22_linear_89_309" x1="712.779" y1="416.167" x2="730.442" y2="416.167" gradientUnits="userSpaceOnUse">
<stop stop-color="#0A79BA"/>
<stop offset="0.298" stop-color="#0E7DBD"/>
<stop offset="0.649" stop-color="#1B8CC9"/>
<stop offset="1" stop-color="#2FA2DB"/>
</linearGradient>
<linearGradient id="paint23_linear_89_309" x1="726.566" y1="445.022" x2="871.841" y2="445.022" gradientUnits="userSpaceOnUse">
<stop stop-color="#616161"/>
<stop offset="0.298" stop-color="#0E7DBD"/>
<stop offset="0.649" stop-color="#1B8CC9"/>
<stop offset="1" stop-color="#2FA2DB"/>
</linearGradient>
<linearGradient id="paint24_linear_89_309" x1="929.974" y1="411.677" x2="764.103" y2="522.753" gradientUnits="userSpaceOnUse">
<stop stop-color="#E6E6E6"/>
<stop offset="1" stop-color="#B3B3B3"/>
</linearGradient>
</defs>
</svg>
